<svg version="1.1" id="Layer_1" xmlns="http://www.w3.org/2000/svg" xmlns:xlink="http://www.w3.org/1999/xlink" x="0px" y="0px"
	 width="100%" viewBox="0 0 752 784" enable-background="new 0 0 752 784" xml:space="preserve">
<path fill="#000000" opacity="1.000000" stroke="none" 
	d="
M100.274529,592.701904 
	C71.147446,555.108276 50.443253,513.726013 38.097198,468.132935 
	C30.128489,438.705109 26.171890,408.723236 26.170601,378.320343 
	C26.169470,351.643860 29.185678,325.252472 35.221443,299.141754 
	C44.783188,257.777679 61.332062,219.525375 84.862892,184.327957 
	C108.902771,148.369125 138.854507,118.053276 174.168228,93.058304 
	C196.797974,77.041023 220.948547,63.787399 246.815582,53.801186 
	C262.893433,47.594185 279.242401,42.278671 296.115784,38.408501 
	C303.108063,36.804710 309.911438,36.672050 316.827423,36.656761 
	C358.482971,36.564671 400.139618,36.757992 441.794159,36.535782 
	C451.149994,36.485874 459.852997,39.125271 468.562622,41.559067 
	C487.263885,46.784920 505.514893,53.344959 523.189026,61.524883 
	C557.791931,77.539734 588.910583,98.583130 616.680542,124.710457 
	C647.204712,153.429062 671.882996,186.499756 690.453857,223.999191 
	C701.981689,247.276932 710.731384,271.614166 716.617920,297.030945 
	C723.645508,327.374634 727.027466,358.012024 726.035461,389.104218 
	C725.440735,407.744263 723.088867,426.194946 719.643921,444.557922 
	C714.025513,474.506927 704.517883,503.109100 691.163696,530.432678 
	C671.342957,570.987305 644.725830,606.437195 611.289551,636.848206 
	C583.319458,662.287537 552.073486,682.617615 517.582703,697.902588 
	C494.436981,708.159973 470.375153,715.511353 445.485199,720.620300 
	C418.532776,726.152649 391.438965,727.853760 364.074066,727.261536 
	C345.058746,726.849976 326.333435,724.264099 307.656952,720.666016 
	C277.560120,714.867859 248.846405,705.097778 221.461990,691.536316 
	C174.484543,668.272095 134.748993,635.927673 102.101677,594.895874 
	C101.583374,594.244385 101.042290,593.611084 100.274529,592.701904 
M108.898026,180.368210 
	C78.166542,222.004929 57.845982,268.098114 48.738968,319.164154 
	C44.448139,343.224213 43.047890,367.330872 43.899220,391.731812 
	C44.892460,420.200165 49.750332,447.876953 58.008400,475.088776 
	C64.946014,497.949402 74.292198,519.739319 85.987801,540.516174 
	C105.713272,575.557800 130.961929,606.049255 161.725052,631.999939 
	C191.932541,657.481812 225.697235,676.856812 262.708679,690.429260 
	C280.915161,697.105774 299.653656,702.101318 318.900818,705.203491 
	C333.533112,707.561829 348.171967,709.388916 362.976349,709.806885 
	C386.972351,710.484436 410.788055,709.197876 434.531036,705.080383 
	C451.937622,702.061890 468.884247,697.458130 485.511169,691.899353 
	C500.589966,686.858215 515.126160,680.231934 529.307983,672.843140 
	C569.753540,651.771057 604.525574,623.741516 633.429321,588.536438 
	C661.648376,554.165405 682.149048,515.610474 695.064514,473.004211 
	C701.343750,452.289917 705.428528,431.132019 707.595764,409.677673 
	C709.520874,390.621246 709.335449,371.476654 708.060852,352.297241 
	C706.707886,331.937744 703.175903,312.001190 697.993530,292.386627 
	C692.075256,269.986755 683.610168,248.496002 673.063782,227.797852 
	C651.005127,184.506226 620.825012,147.940811 582.745911,117.885742 
	C553.227295,94.587265 520.665161,76.802078 485.054810,64.587547 
	C465.999695,58.051533 446.517029,53.262085 426.632843,50.305031 
	C410.987915,47.978413 395.208527,47.204109 379.347504,46.936607 
	C353.243988,46.496361 327.495056,49.214561 302.135437,54.783298 
	C279.570953,59.738258 257.784424,67.361473 236.712555,77.083862 
	C185.600037,100.666779 143.228088,134.945541 108.898026,180.368210 
z"/>
<path fill="#000000" opacity="1.000000" stroke="none" 
	d="
M377.151154,301.598206 
	C377.151062,307.545227 377.136322,313.036804 377.136780,318.528412 
	C377.139191,347.655212 376.939087,376.784546 377.293762,405.907104 
	C377.383606,413.284790 377.106476,420.643829 377.199768,428.009521 
	C377.255707,432.427795 375.376404,434.261200 370.872711,434.229462 
	C351.880798,434.095581 332.862701,434.785614 313.899658,434.031006 
	C272.690308,432.391144 236.042130,409.845673 222.726807,366.080627 
	C212.605667,332.814270 216.428802,301.162598 236.760345,272.397278 
	C249.307434,254.645523 266.496918,243.255478 287.540527,237.554306 
	C298.062744,234.703598 308.678650,233.460815 319.558228,233.558640 
	C336.549774,233.711411 353.544006,233.578033 370.537048,233.535522 
	C376.162811,233.521439 377.137115,234.416122 377.143097,240.257339 
	C377.163940,260.552490 377.146454,280.847626 377.151154,301.598206 
M365.658447,275.500397 
	C365.448029,266.676117 365.966461,257.841461 365.119812,249.022079 
	C364.856903,246.283463 364.150696,244.633820 360.970764,244.785812 
	C341.027618,245.739136 321.004364,243.193176 301.101807,246.261017 
	C284.755005,248.780762 269.997955,254.792603 257.767334,266.117096 
	C242.040131,280.679047 234.042480,299.067139 231.518600,320.136566 
	C228.471069,345.577271 232.969238,369.215576 248.232910,390.195892 
	C260.937073,407.658081 278.588959,417.527130 299.602478,420.638336 
	C319.430969,423.574127 339.527557,421.723450 359.506592,422.001953 
	C363.615662,422.059265 365.042938,420.600586 365.054443,416.480774 
	C365.107056,397.653381 365.519592,378.827087 365.596069,359.999573 
	C365.709106,332.166840 365.647125,304.333435 365.658447,275.500397 
z"/>
<path fill="#000000" opacity="1.000000" stroke="none" 
	d="
M460.057068,234.753326 
	C477.371124,236.881302 492.617493,243.091141 506.041077,253.439072 
	C525.132935,268.156586 536.874023,287.570709 541.505310,311.196045 
	C547.843628,343.529694 542.789124,373.559570 521.570190,399.490570 
	C506.343689,418.098419 486.260590,428.696289 462.358368,432.338776 
	C438.305908,436.004150 414.155212,433.209167 390.072296,434.177856 
	C385.002258,434.381775 384.655792,431.137878 384.661224,427.246552 
	C384.717499,386.936310 384.703491,346.625977 384.705536,306.315674 
	C384.706635,284.494843 384.691956,262.673981 384.703735,240.853149 
	C384.707336,234.208603 385.231201,233.648727 391.750275,233.650787 
	C411.738617,233.657074 431.727112,233.675888 451.715057,233.782867 
	C454.354156,233.796982 456.990326,234.351151 460.057068,234.753326 
M452.176849,245.163239 
	C435.373291,244.152161 418.557068,245.324524 401.753448,244.860916 
	C397.114166,244.732941 396.222534,247.119049 396.227875,251.074829 
	C396.302063,306.038574 396.336517,361.002502 396.245483,415.966156 
	C396.237915,420.539429 397.836853,422.111298 402.373352,422.051331 
	C416.527924,421.864197 430.688812,422.154022 444.843384,421.966431 
	C456.323547,421.814301 467.688751,420.644012 478.559509,416.484222 
	C504.313507,406.629028 520.138367,387.632874 527.425110,361.655701 
	C532.334473,344.153839 532.495056,326.238953 528.020935,308.375946 
	C521.946899,284.125336 508.626678,265.641144 486.111786,254.168228 
	C475.728119,248.877014 464.564514,246.530411 452.176849,245.163239 
z"/>
<path fill="#000000" opacity="1.000000" stroke="none" 
	d="
M283.949646,508.446136 
	C287.010345,501.282593 289.944305,494.408875 292.915741,487.551361 
	C293.507660,486.185303 294.136017,484.812500 294.938995,483.566101 
	C295.936462,482.018005 297.481750,481.442169 299.288391,481.902191 
	C301.164886,482.379913 302.036163,483.769073 302.048157,485.597198 
	C302.119049,496.419525 302.170685,507.242279 302.144379,518.064697 
	C302.139252,520.150879 301.036377,521.652283 298.736725,521.456726 
	C296.454803,521.262756 295.785004,519.551453 295.778717,517.533386 
	C295.758545,511.048492 295.771179,504.563538 294.986877,497.797089 
	C292.719971,503.143799 290.596497,508.557922 288.126373,513.809021 
	C286.870819,516.478149 286.891937,520.778320 282.869751,520.827026 
	C278.935760,520.874634 279.167114,516.614868 277.983276,514.096497 
	C275.167969,508.107574 272.701294,501.954773 269.426575,495.887329 
	C269.426575,502.858612 269.475677,509.830444 269.394043,516.800781 
	C269.372070,518.679504 269.826233,521.340698 266.868530,521.309570 
	C264.363739,521.283142 263.799042,519.055969 263.802338,516.935852 
	C263.817780,506.945831 263.847900,496.955292 263.979706,486.966339 
	C264.008057,484.814911 264.209656,482.365448 266.900482,481.773560 
	C269.841064,481.126770 270.913055,483.250183 271.881378,485.556671 
	C274.960388,492.890411 278.127716,500.187408 281.316315,507.474365 
	C281.749176,508.463654 281.669891,510.989838 283.949646,508.446136 
z"/>
<path fill="#000000" opacity="1.000000" stroke="none" 
	d="
M411.750580,508.961487 
	C411.749756,501.471252 411.846191,494.472382 411.715332,487.477753 
	C411.628601,482.840698 413.747833,480.720276 418.308319,480.729279 
	C422.799316,480.738159 427.267181,480.546173 431.717896,481.621704 
	C439.143860,483.416168 442.679962,490.962250 438.632874,497.478271 
	C437.060486,500.009888 437.118713,501.593872 438.721802,504.070068 
	C443.268097,511.092499 440.258209,519.072144 432.481110,521.811035 
	C427.277710,523.643555 421.955658,523.231445 416.657410,522.853516 
	C413.557861,522.632568 411.967468,520.508240 411.834076,517.448730 
	C411.718109,514.787903 411.772247,512.119629 411.750580,508.961487 
M429.746094,516.695190 
	C433.789093,515.782288 434.977173,512.976318 434.444763,509.257904 
	C434.047302,506.482056 432.243713,504.685394 429.463165,504.543732 
	C425.595123,504.346558 421.579224,503.162415 417.921844,505.491974 
	C417.591858,505.702209 417.524719,506.368286 417.392120,506.838623 
	C415.361633,514.043030 417.466461,516.826599 424.927643,516.806519 
	C426.250763,516.802917 427.573792,516.770264 429.746094,516.695190 
M426.288239,497.902313 
	C430.135223,497.893158 433.814240,497.680267 433.824860,492.393188 
	C433.834137,487.774933 431.582581,486.227356 424.705444,486.188538 
	C417.235504,486.146393 417.235504,486.146362 417.224335,491.870514 
	C417.212616,497.871796 417.212616,497.871796 426.288239,497.902313 
z"/>
<path fill="#000000" opacity="1.000000" stroke="none" 
	d="
M391.234558,513.782593 
	C391.215515,515.083679 391.195374,515.915710 391.185547,516.747864 
	C391.160461,518.873047 390.723694,520.806580 388.360992,521.468018 
	C386.184082,522.077454 385.011475,520.605103 383.875702,519.085754 
	C377.904358,511.097748 371.913940,503.123962 365.926544,495.147949 
	C365.445801,494.507568 364.937775,493.887665 364.099243,492.822113 
	C362.718170,495.393097 363.376678,497.706879 363.331543,499.866394 
	C363.206360,505.856354 363.277039,511.850159 363.215912,517.841858 
	C363.198242,519.576904 362.843018,521.437927 360.726044,521.555420 
	C358.497803,521.679016 357.601562,519.912354 357.268158,517.989685 
	C357.042358,516.687622 356.989990,515.338623 357.012085,514.013123 
	C357.156189,505.366333 357.282684,496.718384 357.554474,488.075195 
	C357.624603,485.846008 357.206482,483.064575 360.022034,482.068268 
	C362.900177,481.049835 364.091858,483.473633 365.502106,485.313751 
	C368.635162,489.401917 371.843781,493.432434 374.957764,497.534912 
	C377.955811,501.484711 380.873657,505.495392 384.690430,510.644501 
	C384.690430,503.095856 384.685059,496.888672 384.694000,490.681488 
	C384.696411,489.017395 384.717224,487.352448 384.774933,485.689484 
	C384.845215,483.663788 385.519440,482.025146 387.863373,481.926025 
	C390.556213,481.812225 391.231323,483.622162 391.235901,485.849060 
	C391.254700,495.003845 391.240356,504.158691 391.234558,513.782593 
z"/>
<path fill="#000000" opacity="1.000000" stroke="none" 
	d="
M229.707764,482.362427 
	C242.548309,478.391937 250.762527,480.788177 256.311157,490.072571 
	C260.783173,497.555450 260.764679,505.346527 256.560547,512.835815 
	C252.598694,519.893494 246.370819,523.818970 238.068420,523.236267 
	C225.001572,522.319153 218.233490,510.568024 219.185730,499.471741 
	C219.785522,492.482513 222.983475,486.383942 229.707764,482.362427 
M238.587265,486.095703 
	C229.417191,486.507721 225.006287,491.990509 225.214172,502.718445 
	C225.393051,511.948334 230.411072,517.013367 239.344574,516.981201 
	C248.048492,516.949890 252.888077,511.968750 253.043961,502.881165 
	C253.239182,491.499542 249.141525,486.434265 238.587265,486.095703 
z"/>
<path fill="#000000" opacity="1.000000" stroke="none" 
	d="
M212.340118,490.952454 
	C216.575653,502.822327 215.054276,512.037537 207.636429,517.885864 
	C201.097778,523.041138 193.347427,523.831970 185.386063,522.613586 
	C182.206390,522.126953 180.704590,519.952637 180.743103,516.545227 
	C180.855850,506.564697 180.821976,496.581940 180.767593,486.600494 
	C180.753357,483.985962 181.507584,482.193817 184.212830,481.283783 
	C193.118210,478.288116 206.735992,482.779572 212.340118,490.952454 
M207.254013,509.558441 
	C209.767853,503.355591 209.994644,497.216248 205.974899,491.583038 
	C202.244537,486.355438 196.615723,485.872253 190.754730,486.165405 
	C188.257858,486.290314 187.121735,487.325836 187.136276,489.821320 
	C187.181900,497.648071 187.169525,505.475159 187.194000,513.302063 
	C187.198959,514.887329 187.537537,516.135681 189.405640,516.691833 
	C195.911758,518.628723 202.740829,516.169006 207.254013,509.558441 
z"/>
<path fill="#000000" opacity="1.000000" stroke="none" 
	d="
M575.539307,513.542480 
	C576.110413,514.395874 576.483887,514.946777 576.833374,515.512512 
	C577.997009,517.396484 580.499756,519.562378 577.460754,521.373352 
	C574.867676,522.918701 573.350098,520.243042 572.005676,518.394653 
	C569.757629,515.304077 567.546509,512.183228 565.426392,509.004059 
	C563.932312,506.763580 561.915161,505.946350 559.415405,506.633331 
	C556.745728,507.366974 557.424438,509.740601 557.333191,511.638153 
	C557.229431,513.796326 557.329834,515.964172 557.227356,518.122498 
	C557.138550,519.992493 556.252136,521.350403 554.214233,521.410889 
	C552.174500,521.471375 551.142090,520.148804 551.012390,518.304504 
	C550.826111,515.654724 550.856201,512.987549 550.849915,510.327667 
	C550.832336,502.841888 550.803223,495.355804 550.857056,487.870361 
	C550.894104,482.726501 552.622803,480.727386 557.580200,480.667969 
	C561.379211,480.622467 565.181274,480.676117 569.005920,481.286041 
	C574.440063,482.152588 577.805847,484.954407 579.092712,490.183136 
	C580.432312,495.625977 578.308411,500.826813 573.641602,504.145935 
	C572.725159,504.797729 571.395935,504.898956 570.865234,506.316040 
	C571.480408,509.097565 573.918213,510.854187 575.539307,513.542480 
M570.391235,499.106476 
	C573.645569,496.283997 575.064331,493.290344 572.096497,489.238861 
	C568.722839,484.633484 563.974121,485.947754 559.805054,486.522308 
	C555.794800,487.074951 557.774048,491.060730 557.341125,493.577698 
	C557.120911,494.857544 557.345398,496.216919 557.394897,497.539368 
	C557.460144,499.282776 558.359680,500.459808 560.103455,500.478424 
	C563.350891,500.513031 566.712769,501.514801 570.391235,499.106476 
z"/>
<path fill="#000000" opacity="1.000000" stroke="none" 
	d="
M529.946777,480.681519 
	C534.231079,480.567535 538.056519,480.324738 541.875549,480.400757 
	C543.788452,480.438812 545.741760,481.395782 545.696777,483.592163 
	C545.646851,486.030945 543.434204,486.147034 541.582764,486.175598 
	C537.417236,486.239929 533.248657,486.271912 529.083923,486.187134 
	C524.515137,486.094147 525.276611,489.373199 525.231812,492.114990 
	C525.185364,494.960449 524.763000,498.073120 529.247620,497.892914 
	C532.575867,497.759155 535.918335,497.733398 539.244690,497.880554 
	C541.727417,497.990356 545.491028,497.025940 545.490967,500.883728 
	C545.490906,504.932343 541.672974,504.195740 538.944153,504.272003 
	C535.780029,504.360382 532.607727,504.389526 529.445862,504.266052 
	C525.120605,504.097137 525.089111,506.992157 525.287170,509.964966 
	C525.480408,512.866089 524.075073,516.811035 529.332214,516.777344 
	C533.498352,516.750671 537.665833,516.746765 541.830872,516.827698 
	C543.694580,516.863892 545.831482,517.070862 545.814270,519.552979 
	C545.799194,521.724243 544.009827,522.792114 542.057190,522.844910 
	C536.399780,522.998047 530.729492,523.111755 525.078186,522.888184 
	C521.828979,522.759644 519.921997,520.703735 519.909302,517.299866 
	C519.870789,506.967224 519.753357,496.632660 519.906372,486.302399 
	C519.976624,481.561646 521.587830,480.773712 529.946777,480.681519 
z"/>
<path fill="#000000" opacity="1.000000" stroke="none" 
	d="
M312.206543,518.094971 
	C311.062988,520.844727 309.545807,522.715637 306.785126,521.118591 
	C304.173889,519.607971 306.160400,517.735840 306.886810,515.988831 
	C310.952240,506.211945 314.956604,496.409729 319.022491,486.633026 
	C319.975250,484.342041 320.843781,481.794495 323.973419,481.761871 
	C326.951080,481.730835 327.591431,484.162262 328.514832,486.313080 
	C332.819580,496.339661 337.168091,506.347504 341.492401,516.365723 
	C342.262085,518.148926 342.733124,520.176453 340.675781,521.180847 
	C338.425232,522.279724 336.891602,520.629456 335.952606,518.757935 
	C334.791260,516.443237 334.666260,512.839294 331.674774,512.541504 
	C326.427460,512.019165 321.056427,512.106750 315.800446,512.605469 
	C313.596985,512.814514 313.618286,516.065125 312.206543,518.094971 
M323.283875,491.770752 
	C321.256165,496.609039 319.228485,501.447296 316.993683,506.779755 
	C321.850708,507.040405 326.000793,507.531494 330.770111,506.122528 
	C327.873169,501.139221 327.457428,495.548523 323.283875,491.770752 
z"/>
<path fill="#000000" opacity="1.000000" stroke="none" 
	d="
M445.758484,508.561401 
	C445.714966,500.949341 445.683746,493.789673 445.666321,486.629974 
	C445.660889,484.402924 445.612457,481.973511 448.736511,481.972748 
	C451.653381,481.972046 452.128021,484.193268 452.143860,486.514343 
	C452.192627,493.673889 452.120300,500.835114 452.247894,507.992981 
	C452.345947,513.494812 454.911652,516.439697 459.626892,516.852600 
	C467.763641,517.565186 470.569244,516.206787 471.426819,509.754730 
	C472.322388,503.016663 472.275482,496.154266 472.666718,489.347717 
	C472.771118,487.530945 472.821381,485.689453 473.179443,483.916473 
	C473.420746,482.721649 474.405060,481.930908 475.768707,482.046417 
	C476.901581,482.142426 477.801208,482.947113 477.811310,483.928406 
	C477.914948,493.998932 480.150574,504.326080 476.587128,514.037170 
	C473.821838,521.573059 467.486023,524.258667 459.132538,523.232727 
	C452.213013,522.382935 448.025543,517.924988 445.758484,508.561401 
z"/>
<path fill="#000000" opacity="1.000000" stroke="none" 
	d="
M494.540222,493.464142 
	C495.771881,495.033203 496.806366,496.307007 498.159912,497.973663 
	C502.603699,494.890808 504.207642,489.908905 507.411011,486.272308 
	C509.197144,484.244690 510.569763,480.234222 513.764282,482.314880 
	C517.441345,484.709808 513.208557,487.062164 512.258179,489.362274 
	C511.825470,490.409668 510.965851,491.293579 510.242065,492.205780 
	C504.489868,499.454742 499.157288,506.803619 501.229980,516.964539 
	C501.613617,518.845276 501.395111,521.358398 498.529816,521.356567 
	C495.758423,521.354797 494.624603,519.153992 495.073425,516.855164 
	C497.319611,505.350891 490.749878,497.298798 484.552368,489.060516 
	C484.052399,488.395874 483.411926,487.818298 483.008911,487.103180 
	C482.178162,485.629150 480.022858,484.056763 482.152832,482.392303 
	C484.222534,480.774963 486.233704,481.793182 487.682037,483.821381 
	C489.905426,486.935028 492.122986,490.052856 494.540222,493.464142 
z"/>
<path fill="#000000" opacity="1.000000" stroke="none" 
	d="
M344.671204,499.001862 
	C344.679443,494.345154 344.651276,490.187439 344.711517,486.030975 
	C344.738281,484.185333 344.782410,482.003113 347.354065,482.088135 
	C349.342072,482.153839 350.059998,483.908783 350.068512,485.690186 
	C350.119476,496.331329 350.142426,506.973022 350.074554,517.613892 
	C350.062256,519.542664 349.277435,521.458313 346.934387,521.298035 
	C344.708313,521.145752 344.744507,519.117981 344.729919,517.460449 
	C344.677216,511.474365 344.685516,505.487762 344.671204,499.001862 
z"/>
</svg>